<svg width="52" height="52" viewBox="0 0 52 52" fill="none" xmlns="http://www.w3.org/2000/svg">
    <path d="M17.875 37.3751C17.444 37.3751 17.0307 37.2039 16.726 36.8992C16.4212 36.5944 16.25 36.1811 16.25 35.7501V16.2501C16.2501 15.9732 16.321 15.701 16.456 15.4592C16.5909 15.2174 16.7853 15.0141 17.0209 14.8685C17.2564 14.723 17.5253 14.6401 17.8019 14.6276C18.0785 14.6152 18.3537 14.6736 18.6014 14.7974L38.1014 24.5474C38.3709 24.6825 38.5976 24.8899 38.756 25.1465C38.9144 25.403 38.9983 25.6986 38.9983 26.0001C38.9983 26.3016 38.9144 26.5972 38.756 26.8538C38.5976 27.1103 38.3709 27.3178 38.1014 27.4529L18.6014 37.2029C18.3759 37.3158 18.1272 37.3748 17.875 37.3751ZM19.5 18.8794V33.1209L33.7415 26.0001L19.5 18.8794Z" fill="white"/>
    <path d="M26 6.5C29.8567 6.5 33.6269 7.64365 36.8336 9.78634C40.0404 11.929 42.5397 14.9745 44.0157 18.5377C45.4916 22.1008 45.8777 26.0216 45.1253 29.8043C44.3729 33.5869 42.5157 37.0615 39.7886 39.7886C37.0615 42.5157 33.5869 44.3729 29.8043 45.1253C26.0216 45.8777 22.1008 45.4916 18.5377 44.0156C14.9745 42.5397 11.929 40.0404 9.78635 36.8336C7.64366 33.6269 6.50001 29.8567 6.50001 26C6.50001 20.8283 8.55447 15.8684 12.2114 12.2114C15.8684 8.55446 20.8283 6.5 26 6.5ZM26 3.25C21.5005 3.25 17.102 4.58426 13.3608 7.08407C9.61957 9.58387 6.70364 13.1369 4.98175 17.294C3.25986 21.451 2.80933 26.0252 3.68715 30.4383C4.56496 34.8514 6.73169 38.905 9.91333 42.0867C13.095 45.2683 17.1486 47.4351 21.5617 48.3129C25.9748 49.1907 30.549 48.7402 34.7061 47.0183C38.8631 45.2964 42.4161 42.3804 44.9159 38.6392C47.4157 34.898 48.75 30.4995 48.75 26C48.75 19.9663 46.3531 14.1798 42.0867 9.91332C37.8202 5.64687 32.0337 3.25 26 3.25Z" fill="white"/>
</svg>
