<svg width="24" height="24" viewBox="0 0 24 24" fill="none" xmlns="http://www.w3.org/2000/svg">
<path d="M11.9998 21.9333C11.7311 21.9346 11.4659 21.8727 11.2255 21.7527C10.9851 21.6327 10.7762 21.4578 10.6158 21.2423L5.55479 14.5003C4.7174 13.3194 4.22087 11.931 4.11948 10.4869C4.0181 9.04278 4.31577 7.59861 4.97995 6.31231C5.64413 5.02601 6.64923 3.94711 7.88533 3.19362C9.12143 2.44013 10.5409 2.04105 11.9886 2.04004C13.4362 2.03903 14.8563 2.43612 16.0934 3.18789C17.3306 3.93965 18.3372 5.01714 19.0032 6.30251C19.6692 7.58788 19.9688 9.03163 19.8695 10.4759C19.7701 11.9201 19.2755 13.3092 18.4398 14.4913L13.3848 21.2403C13.2244 21.4562 13.0154 21.6314 12.7749 21.7518C12.5343 21.8722 12.2688 21.9343 11.9998 21.9333ZM11.9918 3.06627C10.3016 3.06096 8.66987 3.68436 7.41379 4.81527C6.15418 5.93997 5.3514 7.48802 5.15784 9.16555C4.96428 10.8431 5.39342 12.5333 6.36379 13.9153L11.4148 20.6423C11.4825 20.7332 11.5706 20.807 11.6721 20.8577C11.7735 20.9084 11.8854 20.9347 11.9988 20.9343C12.1124 20.9344 12.2245 20.9081 12.3263 20.8574C12.428 20.8068 12.5165 20.7331 12.5848 20.6423L17.6288 13.9083C18.317 12.9344 18.74 11.7983 18.8563 10.6115C18.9726 9.42464 18.7781 8.228 18.292 7.13908C17.8059 6.05016 17.0449 5.10643 16.0837 4.40061C15.1225 3.69478 13.9943 3.25114 12.8098 3.11327C12.5382 3.08225 12.2651 3.06656 11.9918 3.06627Z" fill="white"/>
<path d="M12 12.5C11.5055 12.5 11.0222 12.3534 10.6111 12.0787C10.2 11.804 9.87952 11.4135 9.6903 10.9567C9.50108 10.4999 9.45157 9.99723 9.54804 9.51228C9.6445 9.02732 9.8826 8.58187 10.2322 8.23223C10.5819 7.8826 11.0273 7.6445 11.5123 7.54804C11.9972 7.45157 12.4999 7.50108 12.9567 7.6903C13.4135 7.87952 13.804 8.19995 14.0787 8.61108C14.3534 9.0222 14.5 9.50555 14.5 10C14.5 10.663 14.2366 11.2989 13.7678 11.7678C13.2989 12.2366 12.663 12.5 12 12.5ZM12 8.5C11.7033 8.5 11.4133 8.58797 11.1666 8.7528C10.92 8.91762 10.7277 9.15189 10.6142 9.42598C10.5007 9.70007 10.4709 10.0017 10.5288 10.2926C10.5867 10.5836 10.7296 10.8509 10.9393 11.0607C11.1491 11.2704 11.4164 11.4133 11.7074 11.4712C11.9983 11.5291 12.2999 11.4994 12.574 11.3858C12.8481 11.2723 13.0824 11.08 13.2472 10.8334C13.412 10.5867 13.5 10.2967 13.5 10C13.5 9.60218 13.342 9.22065 13.0607 8.93934C12.7794 8.65804 12.3978 8.5 12 8.5Z" fill="white"/>
</svg>
