<svg width="24" height="24" viewBox="0 0 24 24" fill="none" xmlns="http://www.w3.org/2000/svg">
<path d="M4.5 22C4.10217 22 3.72065 21.842 3.43934 21.5607C3.15804 21.2794 3 20.8978 3 20.5V17C3 16.6022 3.15804 16.2206 3.43934 15.9393C3.72065 15.658 4.10217 15.5 4.5 15.5C5.67 15.5 6.82 15.32 7.92 14.95C8.18299 14.867 8.46369 14.8576 8.73165 14.9228C8.99961 14.988 9.24458 15.1254 9.44 15.32L10.88 16.76C13.3677 15.4023 15.4123 13.3577 16.77 10.87L15.34 9.44C14.93 9.05 14.78 8.47 14.96 7.91C15.32 6.82 15.5 5.67 15.5 4.5C15.5 4.10218 15.658 3.72064 15.9393 3.43934C16.2206 3.15804 16.6022 3 17 3H20.5C20.8978 3 21.2794 3.15804 21.5607 3.43934C21.842 3.72064 22 4.10218 22 4.5C22 14.15 14.15 22 4.5 22ZM20.5 4H17C16.8674 4 16.7402 4.05268 16.6464 4.14645C16.5527 4.24021 16.5 4.36739 16.5 4.5C16.5 5.78 16.3 7.03 15.91 8.22C15.86 8.36 15.87 8.56 16.03 8.72L18 10.68C16.35 13.91 13.93 16.33 10.69 18L8.74 16.03C8.6 15.89 8.41 15.85 8.23 15.9C7.03 16.3 5.78 16.5 4.5 16.5C4.36739 16.5 4.24022 16.5527 4.14645 16.6464C4.05268 16.7402 4 16.8674 4 17V20.5C4 20.6326 4.05268 20.7598 4.14645 20.8536C4.24022 20.9473 4.36739 21 4.5 21C13.6 21 21 13.6 21 4.5C21 4.36739 20.9473 4.24021 20.8536 4.14645C20.7598 4.05268 20.6326 4 20.5 4Z" fill="white"/>
</svg>
