<svg width="23" height="24" viewBox="0 0 23 24" fill="none" xmlns="http://www.w3.org/2000/svg">
<path d="M21.0306 2.765C20.824 2.58627 20.5748 2.46923 20.3096 2.42627C20.0444 2.38331 19.773 2.41605 19.5241 2.521L2.35367 9.754C2.0762 9.87298 1.83998 10.0772 1.67635 10.3396C1.51273 10.6019 1.42944 10.91 1.43755 11.2229C1.44566 11.5358 1.54478 11.8388 1.72176 12.0915C1.89874 12.3442 2.14519 12.5348 2.42842 12.638L6.13333 13.98L8.14104 20.906C8.14488 20.92 8.15733 20.929 8.16308 20.942C8.18377 20.9973 8.21398 21.0481 8.25221 21.092C8.3103 21.1597 8.38529 21.2092 8.46879 21.235C8.47838 21.239 8.48509 21.248 8.49467 21.25H8.50042L8.50329 21.251C8.57743 21.2676 8.65448 21.2635 8.72658 21.239C8.73425 21.237 8.74192 21.237 8.75054 21.234C8.81978 21.2087 8.88243 21.1669 8.93358 21.112C8.93933 21.105 8.94892 21.104 8.95467 21.098L11.8421 17.772L16.0559 21.177C16.3118 21.386 16.6271 21.499 16.952 21.499C17.6554 21.499 18.262 20.985 18.4067 20.268L21.5328 4.25C21.5858 3.97807 21.5671 3.69623 21.4787 3.43452C21.3902 3.17282 21.2354 2.94107 21.0306 2.764V2.765ZM9.1885 15.295L8.51096 18.732L7.09742 13.854L14.1076 10.044L9.31884 15.042C9.25252 15.1111 9.20719 15.1991 9.1885 15.295ZM17.4675 20.067C17.4496 20.1577 17.4095 20.242 17.3513 20.3119C17.293 20.3818 17.2186 20.4348 17.135 20.466C17.0535 20.4987 16.9652 20.5088 16.8788 20.4951C16.7924 20.4814 16.711 20.4445 16.6424 20.388L12.0779 16.699C11.9825 16.6221 11.8628 16.5856 11.7427 16.5967C11.6226 16.6079 11.511 16.6658 11.43 16.759L9.42042 19.07L10.097 15.643L16.9865 8.453C17.0671 8.36853 17.1162 8.25676 17.1249 8.13784C17.1335 8.01892 17.1011 7.9007 17.0336 7.8045C16.966 7.7083 16.8678 7.64047 16.7565 7.61324C16.6452 7.58601 16.5283 7.60117 16.4268 7.656L6.49558 13.054L2.74179 11.692C2.64226 11.6577 2.55546 11.5919 2.49345 11.5037C2.43144 11.4155 2.39732 11.3094 2.39583 11.2C2.39106 11.0897 2.41931 10.9805 2.47666 10.8877C2.53402 10.7949 2.61764 10.723 2.71592 10.682L19.8835 3.449C19.9715 3.41 20.0681 3.39738 20.1626 3.41258C20.2571 3.42777 20.3456 3.47017 20.4183 3.535C20.4905 3.59599 20.545 3.67673 20.5758 3.7682C20.6066 3.85967 20.6125 3.95827 20.5927 4.053L17.4675 20.068V20.067Z" fill="white"/>
</svg>
